<?xml version="1.0" encoding="iso-8859-1"?>
<!-- Uploaded to: SVG Repo, www.svgrepo.com, Generator: SVG Repo Mixer Tools -->
<svg fill="#000000" height="800px" width="800px" version="1.1" id="Layer_1" xmlns="http://www.w3.org/2000/svg" xmlns:xlink="http://www.w3.org/1999/xlink" 
	 viewBox="0 0 512.001 512.001" xml:space="preserve">
<g>
	<g>
		<path d="M482.202,92.288H340.462H199.797c-19.957,0-34.308,19.343-28.493,38.454l42.126,138.413
			c3.841,12.623,15.29,21.104,28.491,21.104c27.241,0,181.53,0,198.157,0c13.198,0,24.648-8.48,28.491-21.103l42.128-138.417
			C516.505,111.645,502.177,92.288,482.202,92.288z M211.206,147.296l-6.591-21.654h45.372l2.486,21.654H211.206z M221.358,180.65
			h34.946l2.553,22.236h-30.731L221.358,180.65z M244.567,256.905l-6.289-20.665h24.409l2.373,20.665H244.567z M289.877,180.65
			h33.907v22.236H292.43L289.877,180.65z M323.786,256.905h-25.153l-2.373-20.665h27.526V256.905z M323.786,147.296h-37.738
			l-2.486-21.654h40.224V147.296z M381.181,256.905h-24.041V236.24h26.414L381.181,256.905z M387.381,202.886h-30.243V180.65h32.796
			L387.381,202.886z M393.764,147.296h-36.626v-21.654h39.112L393.764,147.296z M437.433,256.905h-22.681l2.373-20.665h26.597
			L437.433,256.905z M453.874,202.886h-32.919l2.553-22.236h37.134L453.874,202.886z M470.794,147.296h-43.456l2.486-21.654h47.56
			L470.794,147.296z"/>
	</g>
</g>
<g>
	<g>
		<path d="M442.02,395.843c-11.224,0-21.479,4.204-29.292,11.11l-52.462-23.89l74.319-33.843h32.03
			c9.21,0,16.677-7.467,16.677-16.677c0-9.21-7.467-16.677-16.677-16.677H198.535l-84.143-276.47
			c-2.138-7.022-8.615-11.822-15.955-11.822h-81.76C7.467,27.575,0,35.042,0,44.252s7.467,16.677,16.677,16.677h69.404
			L170.226,337.4c2.137,7.022,8.614,11.822,15.954,11.822h19.286l74.319,33.843L227.86,406.71
			c-7.778-6.76-17.921-10.866-29.01-10.866c-24.422,0-44.289,19.869-44.289,44.291s19.868,44.291,44.289,44.291
			c25.638,0,46.27-21.911,44.127-47.948l77.05-35.086l77.84,35.446c-1.923,25.925,18.675,47.588,44.155,47.588
			c24.422,0,44.289-19.869,44.289-44.291C486.311,415.713,466.442,395.843,442.02,395.843z M198.849,451.071
			c-6.03,0-10.936-4.906-10.936-10.937c0-6.03,4.905-10.937,10.936-10.937c6.03,0,10.937,4.906,10.937,10.937
			C209.786,446.164,204.879,451.071,198.849,451.071z M320.025,364.739l-34.078-15.518h68.155L320.025,364.739z M442.02,451.071
			c-6.03,0-10.937-4.906-10.937-10.937c0-6.03,4.906-10.937,10.937-10.937c6.03,0,10.936,4.906,10.936,10.937
			C452.956,446.164,448.051,451.071,442.02,451.071z"/>
	</g>
</g>
</svg>