<svg xmlns="http://www.w3.org/2000/svg" xmlns:xlink="http://www.w3.org/1999/xlink" width="480" zoomAndPan="magnify" viewBox="0 0 360 113.249998" height="151" preserveAspectRatio="xMidYMid meet" version="1.0"><defs><g/><clipPath id="0d5dfecd5c"><path d="M 19.367188 7.820312 L 115.015625 7.820312 L 115.015625 104 L 19.367188 104 Z M 19.367188 7.820312 " clip-rule="nonzero"/></clipPath><clipPath id="a68955a700"><path d="M 25.328125 7.820312 L 109.054688 7.820312 C 110.636719 7.820312 112.152344 8.449219 113.269531 9.566406 C 114.386719 10.683594 115.015625 12.199219 115.015625 13.78125 L 115.015625 97.941406 C 115.015625 99.519531 114.386719 101.039062 113.269531 102.15625 C 112.152344 103.273438 110.636719 103.902344 109.054688 103.902344 L 25.328125 103.902344 C 23.746094 103.902344 22.230469 103.273438 21.113281 102.15625 C 19.996094 101.039062 19.367188 99.519531 19.367188 97.941406 L 19.367188 13.78125 C 19.367188 12.199219 19.996094 10.683594 21.113281 9.566406 C 22.230469 8.449219 23.746094 7.820312 25.328125 7.820312 Z M 25.328125 7.820312 " clip-rule="nonzero"/></clipPath><clipPath id="ea24dec84c"><path d="M 0.367188 0.820312 L 96.015625 0.820312 L 96.015625 96.953125 L 0.367188 96.953125 Z M 0.367188 0.820312 " clip-rule="nonzero"/></clipPath><clipPath id="ab55277195"><path d="M 6.328125 0.820312 L 90.054688 0.820312 C 91.636719 0.820312 93.152344 1.449219 94.269531 2.566406 C 95.386719 3.683594 96.015625 5.199219 96.015625 6.78125 L 96.015625 90.941406 C 96.015625 92.519531 95.386719 94.039062 94.269531 95.15625 C 93.152344 96.273438 91.636719 96.902344 90.054688 96.902344 L 6.328125 96.902344 C 4.746094 96.902344 3.230469 96.273438 2.113281 95.15625 C 0.996094 94.039062 0.367188 92.519531 0.367188 90.941406 L 0.367188 6.78125 C 0.367188 5.199219 0.996094 3.683594 2.113281 2.566406 C 3.230469 1.449219 4.746094 0.820312 6.328125 0.820312 Z M 6.328125 0.820312 " clip-rule="nonzero"/></clipPath><clipPath id="9d98bfa680"><rect x="0" width="97" y="0" height="97"/></clipPath></defs><g clip-path="url(#0d5dfecd5c)"><g clip-path="url(#a68955a700)"><g transform="matrix(1, 0, 0, 1, 19, 7)"><g clip-path="url(#9d98bfa680)"><g clip-path="url(#ea24dec84c)"><g clip-path="url(#ab55277195)"><path fill="#ce1126" d="M 0.367188 0.820312 L 96.015625 0.820312 L 96.015625 96.84375 L 0.367188 96.84375 Z M 0.367188 0.820312 " fill-opacity="1" fill-rule="nonzero"/></g></g></g></g></g></g><g fill="#ffffff" fill-opacity="1"><g transform="translate(18.750874, 77.467423)"><g><path d="M 33.21875 0 L 24.734375 -12.25 L 15.390625 -12.25 L 15.390625 0 L 5.21875 0 L 5.21875 -43.953125 L 24.234375 -43.953125 C 28.128906 -43.953125 31.507812 -43.300781 34.375 -42 C 37.25 -40.707031 39.457031 -38.867188 41 -36.484375 C 42.550781 -34.097656 43.328125 -31.269531 43.328125 -28 C 43.328125 -24.738281 42.539062 -21.925781 40.96875 -19.5625 C 39.40625 -17.195312 37.175781 -15.382812 34.28125 -14.125 L 44.140625 0 Z M 33.03125 -28 C 33.03125 -30.476562 32.234375 -32.375 30.640625 -33.6875 C 29.054688 -35.007812 26.734375 -35.671875 23.671875 -35.671875 L 15.390625 -35.671875 L 15.390625 -20.34375 L 23.671875 -20.34375 C 26.734375 -20.34375 29.054688 -21.007812 30.640625 -22.34375 C 32.234375 -23.6875 33.03125 -25.570312 33.03125 -28 Z M 33.03125 -28 "/></g></g></g><g fill="#ffffff" fill-opacity="1"><g transform="translate(61.764961, 77.467423)"><g><path d="M 5.21875 -43.953125 L 25.1875 -43.953125 C 29.957031 -43.953125 34.171875 -43.039062 37.828125 -41.21875 C 41.492188 -39.40625 44.34375 -36.84375 46.375 -33.53125 C 48.40625 -30.226562 49.421875 -26.378906 49.421875 -21.984375 C 49.421875 -17.585938 48.40625 -13.734375 46.375 -10.421875 C 44.34375 -7.117188 41.492188 -4.554688 37.828125 -2.734375 C 34.171875 -0.910156 29.957031 0 25.1875 0 L 5.21875 0 Z M 24.671875 -8.359375 C 29.066406 -8.359375 32.570312 -9.582031 35.1875 -12.03125 C 37.8125 -14.476562 39.125 -17.796875 39.125 -21.984375 C 39.125 -26.171875 37.8125 -29.488281 35.1875 -31.9375 C 32.570312 -34.382812 29.066406 -35.609375 24.671875 -35.609375 L 15.390625 -35.609375 L 15.390625 -8.359375 Z M 24.671875 -8.359375 "/></g></g></g><g fill="#000000" fill-opacity="1"><g transform="translate(123.305933, 53.061428)"><g><path d="M 12.328125 0.3125 C 10.222656 0.3125 8.191406 -0.0078125 6.234375 -0.65625 C 4.285156 -1.3125 2.753906 -2.15625 1.640625 -3.1875 L 3.109375 -6.3125 C 4.171875 -5.351562 5.535156 -4.570312 7.203125 -3.96875 C 8.867188 -3.375 10.578125 -3.078125 12.328125 -3.078125 C 14.640625 -3.078125 16.367188 -3.46875 17.515625 -4.25 C 18.660156 -5.03125 19.234375 -6.070312 19.234375 -7.375 C 19.234375 -8.332031 18.921875 -9.109375 18.296875 -9.703125 C 17.671875 -10.304688 16.898438 -10.769531 15.984375 -11.09375 C 15.066406 -11.414062 13.769531 -11.773438 12.09375 -12.171875 C 9.988281 -12.671875 8.289062 -13.175781 7 -13.6875 C 5.707031 -14.195312 4.601562 -14.972656 3.6875 -16.015625 C 2.769531 -17.066406 2.3125 -18.484375 2.3125 -20.265625 C 2.3125 -21.753906 2.703125 -23.097656 3.484375 -24.296875 C 4.273438 -25.492188 5.46875 -26.453125 7.0625 -27.171875 C 8.65625 -27.890625 10.640625 -28.25 13.015625 -28.25 C 14.660156 -28.25 16.28125 -28.035156 17.875 -27.609375 C 19.46875 -27.191406 20.835938 -26.582031 21.984375 -25.78125 L 20.671875 -22.59375 C 19.503906 -23.332031 18.253906 -23.894531 16.921875 -24.28125 C 15.585938 -24.664062 14.285156 -24.859375 13.015625 -24.859375 C 10.753906 -24.859375 9.054688 -24.445312 7.921875 -23.625 C 6.785156 -22.800781 6.21875 -21.738281 6.21875 -20.4375 C 6.21875 -19.476562 6.535156 -18.695312 7.171875 -18.09375 C 7.816406 -17.5 8.609375 -17.035156 9.546875 -16.703125 C 10.492188 -16.367188 11.78125 -16.015625 13.40625 -15.640625 C 15.507812 -15.140625 17.195312 -14.632812 18.46875 -14.125 C 19.75 -13.625 20.847656 -12.851562 21.765625 -11.8125 C 22.679688 -10.769531 23.140625 -9.375 23.140625 -7.625 C 23.140625 -6.15625 22.738281 -4.816406 21.9375 -3.609375 C 21.144531 -2.398438 19.9375 -1.441406 18.3125 -0.734375 C 16.6875 -0.0351562 14.691406 0.3125 12.328125 0.3125 Z M 12.328125 0.3125 "/></g></g></g><g fill="#000000" fill-opacity="1"><g transform="translate(148.088498, 53.061428)"><g><path d="M 23.34375 -21.15625 L 23.34375 0 L 19.71875 0 L 19.71875 -3.1875 C 18.945312 -2.101562 17.925781 -1.257812 16.65625 -0.65625 C 15.394531 -0.0625 14.019531 0.234375 12.53125 0.234375 C 9.707031 0.234375 7.484375 -0.539062 5.859375 -2.09375 C 4.242188 -3.644531 3.4375 -5.941406 3.4375 -8.984375 L 3.4375 -21.15625 L 7.265625 -21.15625 L 7.265625 -9.421875 C 7.265625 -7.367188 7.753906 -5.816406 8.734375 -4.765625 C 9.722656 -3.710938 11.132812 -3.1875 12.96875 -3.1875 C 14.988281 -3.1875 16.582031 -3.796875 17.75 -5.015625 C 18.925781 -6.242188 19.515625 -7.976562 19.515625 -10.21875 L 19.515625 -21.15625 Z M 23.34375 -21.15625 "/></g></g></g><g fill="#000000" fill-opacity="1"><g transform="translate(175.105885, 53.061428)"><g><path d="M 14.84375 -21.34375 C 16.894531 -21.34375 18.726562 -20.890625 20.34375 -19.984375 C 21.96875 -19.085938 23.238281 -17.828125 24.15625 -16.203125 C 25.082031 -14.578125 25.546875 -12.703125 25.546875 -10.578125 C 25.546875 -8.441406 25.082031 -6.554688 24.15625 -4.921875 C 23.238281 -3.285156 21.96875 -2.015625 20.34375 -1.109375 C 18.726562 -0.210938 16.894531 0.234375 14.84375 0.234375 C 13.332031 0.234375 11.941406 -0.0546875 10.671875 -0.640625 C 9.410156 -1.222656 8.34375 -2.070312 7.46875 -3.1875 L 7.46875 7.734375 L 3.625 7.734375 L 3.625 -21.15625 L 7.296875 -21.15625 L 7.296875 -17.796875 C 8.148438 -18.960938 9.226562 -19.84375 10.53125 -20.4375 C 11.832031 -21.039062 13.269531 -21.34375 14.84375 -21.34375 Z M 14.53125 -3.109375 C 15.882812 -3.109375 17.097656 -3.421875 18.171875 -4.046875 C 19.253906 -4.671875 20.109375 -5.546875 20.734375 -6.671875 C 21.359375 -7.804688 21.671875 -9.109375 21.671875 -10.578125 C 21.671875 -12.035156 21.359375 -13.328125 20.734375 -14.453125 C 20.109375 -15.585938 19.253906 -16.460938 18.171875 -17.078125 C 17.097656 -17.691406 15.882812 -18 14.53125 -18 C 13.195312 -18 11.988281 -17.6875 10.90625 -17.0625 C 9.832031 -16.4375 8.984375 -15.5625 8.359375 -14.4375 C 7.734375 -13.320312 7.421875 -12.035156 7.421875 -10.578125 C 7.421875 -9.109375 7.726562 -7.804688 8.34375 -6.671875 C 8.957031 -5.546875 9.804688 -4.671875 10.890625 -4.046875 C 11.984375 -3.421875 13.195312 -3.109375 14.53125 -3.109375 Z M 14.53125 -3.109375 "/></g></g></g><g fill="#000000" fill-opacity="1"><g transform="translate(202.322806, 53.061428)"><g><path d="M 22.75 -10.453125 C 22.75 -10.160156 22.722656 -9.773438 22.671875 -9.296875 L 5.5 -9.296875 C 5.738281 -7.429688 6.554688 -5.929688 7.953125 -4.796875 C 9.359375 -3.671875 11.097656 -3.109375 13.171875 -3.109375 C 15.691406 -3.109375 17.726562 -3.960938 19.28125 -5.671875 L 21.390625 -3.1875 C 20.429688 -2.070312 19.238281 -1.222656 17.8125 -0.640625 C 16.394531 -0.0546875 14.804688 0.234375 13.046875 0.234375 C 10.816406 0.234375 8.835938 -0.222656 7.109375 -1.140625 C 5.378906 -2.054688 4.039062 -3.335938 3.09375 -4.984375 C 2.144531 -6.640625 1.671875 -8.503906 1.671875 -10.578125 C 1.671875 -12.617188 2.128906 -14.460938 3.046875 -16.109375 C 3.960938 -17.765625 5.226562 -19.050781 6.84375 -19.96875 C 8.457031 -20.882812 10.273438 -21.34375 12.296875 -21.34375 C 14.316406 -21.34375 16.117188 -20.882812 17.703125 -19.96875 C 19.285156 -19.050781 20.519531 -17.765625 21.40625 -16.109375 C 22.300781 -14.460938 22.75 -12.578125 22.75 -10.453125 Z M 12.296875 -18.125 C 10.453125 -18.125 8.910156 -17.5625 7.671875 -16.4375 C 6.441406 -15.320312 5.71875 -13.859375 5.5 -12.046875 L 19.078125 -12.046875 C 18.859375 -13.828125 18.128906 -15.285156 16.890625 -16.421875 C 15.660156 -17.554688 14.128906 -18.125 12.296875 -18.125 Z M 12.296875 -18.125 "/></g></g></g><g fill="#000000" fill-opacity="1"><g transform="translate(226.746207, 53.061428)"><g><path d="M 7.296875 -17.59375 C 7.960938 -18.820312 8.945312 -19.753906 10.25 -20.390625 C 11.5625 -21.023438 13.144531 -21.34375 15 -21.34375 L 15 -17.640625 C 14.789062 -17.660156 14.5 -17.671875 14.125 -17.671875 C 12.050781 -17.671875 10.421875 -17.050781 9.234375 -15.8125 C 8.054688 -14.582031 7.46875 -12.820312 7.46875 -10.53125 L 7.46875 0 L 3.625 0 L 3.625 -21.15625 L 7.296875 -21.15625 Z M 7.296875 -17.59375 "/></g></g></g><g fill="#000000" fill-opacity="1"><g transform="translate(123.305933, 90.314715)"><g><path d="M 30.09375 0 L 30.046875 -20.359375 L 19.953125 -3.390625 L 18.125 -3.390625 L 8.015625 -20.234375 L 8.015625 0 L 4.1875 0 L 4.1875 -27.9375 L 7.46875 -27.9375 L 19.109375 -8.296875 L 30.609375 -27.9375 L 33.875 -27.9375 L 33.921875 0 Z M 30.09375 0 "/></g></g></g><g fill="#000000" fill-opacity="1"><g transform="translate(161.41761, 90.314715)"><g><path d="M 22.75 -10.453125 C 22.75 -10.160156 22.722656 -9.773438 22.671875 -9.296875 L 5.5 -9.296875 C 5.738281 -7.429688 6.554688 -5.929688 7.953125 -4.796875 C 9.359375 -3.671875 11.097656 -3.109375 13.171875 -3.109375 C 15.691406 -3.109375 17.726562 -3.960938 19.28125 -5.671875 L 21.390625 -3.1875 C 20.429688 -2.070312 19.238281 -1.222656 17.8125 -0.640625 C 16.394531 -0.0546875 14.804688 0.234375 13.046875 0.234375 C 10.816406 0.234375 8.835938 -0.222656 7.109375 -1.140625 C 5.378906 -2.054688 4.039062 -3.335938 3.09375 -4.984375 C 2.144531 -6.640625 1.671875 -8.503906 1.671875 -10.578125 C 1.671875 -12.617188 2.128906 -14.460938 3.046875 -16.109375 C 3.960938 -17.765625 5.226562 -19.050781 6.84375 -19.96875 C 8.457031 -20.882812 10.273438 -21.34375 12.296875 -21.34375 C 14.316406 -21.34375 16.117188 -20.882812 17.703125 -19.96875 C 19.285156 -19.050781 20.519531 -17.765625 21.40625 -16.109375 C 22.300781 -14.460938 22.75 -12.578125 22.75 -10.453125 Z M 12.296875 -18.125 C 10.453125 -18.125 8.910156 -17.5625 7.671875 -16.4375 C 6.441406 -15.320312 5.71875 -13.859375 5.5 -12.046875 L 19.078125 -12.046875 C 18.859375 -13.828125 18.128906 -15.285156 16.890625 -16.421875 C 15.660156 -17.554688 14.128906 -18.125 12.296875 -18.125 Z M 12.296875 -18.125 "/></g></g></g><g fill="#000000" fill-opacity="1"><g transform="translate(185.841012, 90.314715)"><g><path d="M 7.296875 -17.59375 C 7.960938 -18.820312 8.945312 -19.753906 10.25 -20.390625 C 11.5625 -21.023438 13.144531 -21.34375 15 -21.34375 L 15 -17.640625 C 14.789062 -17.660156 14.5 -17.671875 14.125 -17.671875 C 12.050781 -17.671875 10.421875 -17.050781 9.234375 -15.8125 C 8.054688 -14.582031 7.46875 -12.820312 7.46875 -10.53125 L 7.46875 0 L 3.625 0 L 3.625 -21.15625 L 7.296875 -21.15625 Z M 7.296875 -17.59375 "/></g></g></g><g fill="#000000" fill-opacity="1"><g transform="translate(202.203093, 90.314715)"><g><path d="M 12.84375 0.234375 C 10.695312 0.234375 8.773438 -0.226562 7.078125 -1.15625 C 5.390625 -2.082031 4.066406 -3.363281 3.109375 -5 C 2.148438 -6.644531 1.671875 -8.503906 1.671875 -10.578125 C 1.671875 -12.648438 2.148438 -14.503906 3.109375 -16.140625 C 4.066406 -17.773438 5.390625 -19.050781 7.078125 -19.96875 C 8.773438 -20.882812 10.695312 -21.34375 12.84375 -21.34375 C 14.757812 -21.34375 16.46875 -20.957031 17.96875 -20.1875 C 19.476562 -19.414062 20.644531 -18.300781 21.46875 -16.84375 L 18.5625 -14.96875 C 17.894531 -15.976562 17.066406 -16.734375 16.078125 -17.234375 C 15.097656 -17.742188 14.007812 -18 12.8125 -18 C 11.425781 -18 10.179688 -17.691406 9.078125 -17.078125 C 7.972656 -16.460938 7.109375 -15.585938 6.484375 -14.453125 C 5.859375 -13.328125 5.546875 -12.035156 5.546875 -10.578125 C 5.546875 -9.085938 5.859375 -7.773438 6.484375 -6.640625 C 7.109375 -5.515625 7.972656 -4.644531 9.078125 -4.03125 C 10.179688 -3.414062 11.425781 -3.109375 12.8125 -3.109375 C 14.007812 -3.109375 15.097656 -3.359375 16.078125 -3.859375 C 17.066406 -4.367188 17.894531 -5.128906 18.5625 -6.140625 L 21.46875 -4.3125 C 20.644531 -2.84375 19.476562 -1.71875 17.96875 -0.9375 C 16.46875 -0.15625 14.757812 0.234375 12.84375 0.234375 Z M 12.84375 0.234375 "/></g></g></g><g fill="#000000" fill-opacity="1"><g transform="translate(224.990286, 90.314715)"><g><path d="M 11.328125 -21.34375 C 14.253906 -21.34375 16.492188 -20.625 18.046875 -19.1875 C 19.609375 -17.757812 20.390625 -15.617188 20.390625 -12.765625 L 20.390625 0 L 16.765625 0 L 16.765625 -2.796875 C 16.117188 -1.804688 15.203125 -1.050781 14.015625 -0.53125 C 12.835938 -0.0195312 11.4375 0.234375 9.8125 0.234375 C 7.445312 0.234375 5.550781 -0.332031 4.125 -1.46875 C 2.707031 -2.613281 2 -4.117188 2 -5.984375 C 2 -7.847656 2.675781 -9.34375 4.03125 -10.46875 C 5.382812 -11.601562 7.539062 -12.171875 10.5 -12.171875 L 16.5625 -12.171875 L 16.5625 -12.921875 C 16.5625 -14.578125 16.082031 -15.84375 15.125 -16.71875 C 14.164062 -17.59375 12.753906 -18.03125 10.890625 -18.03125 C 9.640625 -18.03125 8.414062 -17.820312 7.21875 -17.40625 C 6.019531 -17 5.007812 -16.453125 4.1875 -15.765625 L 2.59375 -18.640625 C 3.6875 -19.515625 4.988281 -20.179688 6.5 -20.640625 C 8.019531 -21.109375 9.628906 -21.34375 11.328125 -21.34375 Z M 10.453125 -2.71875 C 11.921875 -2.71875 13.1875 -3.039062 14.25 -3.6875 C 15.3125 -4.34375 16.082031 -5.269531 16.5625 -6.46875 L 16.5625 -9.421875 L 10.65625 -9.421875 C 7.40625 -9.421875 5.78125 -8.328125 5.78125 -6.140625 C 5.78125 -5.078125 6.191406 -4.238281 7.015625 -3.625 C 7.847656 -3.019531 8.992188 -2.71875 10.453125 -2.71875 Z M 10.453125 -2.71875 "/></g></g></g><g fill="#000000" fill-opacity="1"><g transform="translate(248.854979, 90.314715)"><g><path d="M 23.578125 -29.609375 L 23.578125 0 L 19.90625 0 L 19.90625 -3.359375 C 19.0625 -2.179688 17.984375 -1.285156 16.671875 -0.671875 C 15.367188 -0.0664062 13.9375 0.234375 12.375 0.234375 C 10.320312 0.234375 8.484375 -0.210938 6.859375 -1.109375 C 5.234375 -2.015625 3.960938 -3.285156 3.046875 -4.921875 C 2.128906 -6.554688 1.671875 -8.441406 1.671875 -10.578125 C 1.671875 -12.703125 2.128906 -14.578125 3.046875 -16.203125 C 3.960938 -17.828125 5.234375 -19.085938 6.859375 -19.984375 C 8.484375 -20.890625 10.320312 -21.34375 12.375 -21.34375 C 13.882812 -21.34375 15.28125 -21.054688 16.5625 -20.484375 C 17.84375 -19.921875 18.90625 -19.078125 19.75 -17.953125 L 19.75 -29.609375 Z M 12.6875 -3.109375 C 14.019531 -3.109375 15.226562 -3.421875 16.3125 -4.046875 C 17.40625 -4.671875 18.257812 -5.546875 18.875 -6.671875 C 19.488281 -7.804688 19.796875 -9.109375 19.796875 -10.578125 C 19.796875 -12.035156 19.488281 -13.328125 18.875 -14.453125 C 18.257812 -15.585938 17.40625 -16.460938 16.3125 -17.078125 C 15.226562 -17.691406 14.019531 -18 12.6875 -18 C 11.332031 -18 10.113281 -17.691406 9.03125 -17.078125 C 7.957031 -16.460938 7.109375 -15.585938 6.484375 -14.453125 C 5.859375 -13.328125 5.546875 -12.035156 5.546875 -10.578125 C 5.546875 -9.109375 5.859375 -7.804688 6.484375 -6.671875 C 7.109375 -5.546875 7.957031 -4.671875 9.03125 -4.046875 C 10.113281 -3.421875 11.332031 -3.109375 12.6875 -3.109375 Z M 12.6875 -3.109375 "/></g></g></g><g fill="#000000" fill-opacity="1"><g transform="translate(276.0719, 90.314715)"><g><path d="M 12.6875 0.234375 C 10.582031 0.234375 8.691406 -0.226562 7.015625 -1.15625 C 5.347656 -2.082031 4.039062 -3.363281 3.09375 -5 C 2.144531 -6.644531 1.671875 -8.503906 1.671875 -10.578125 C 1.671875 -12.648438 2.144531 -14.503906 3.09375 -16.140625 C 4.039062 -17.773438 5.347656 -19.050781 7.015625 -19.96875 C 8.691406 -20.882812 10.582031 -21.34375 12.6875 -21.34375 C 14.789062 -21.34375 16.671875 -20.882812 18.328125 -19.96875 C 19.992188 -19.050781 21.300781 -17.773438 22.25 -16.140625 C 23.195312 -14.503906 23.671875 -12.648438 23.671875 -10.578125 C 23.671875 -8.503906 23.195312 -6.644531 22.25 -5 C 21.300781 -3.363281 19.992188 -2.082031 18.328125 -1.15625 C 16.671875 -0.226562 14.789062 0.234375 12.6875 0.234375 Z M 12.6875 -3.109375 C 14.039062 -3.109375 15.253906 -3.421875 16.328125 -4.046875 C 17.410156 -4.671875 18.257812 -5.546875 18.875 -6.671875 C 19.488281 -7.804688 19.796875 -9.109375 19.796875 -10.578125 C 19.796875 -12.035156 19.488281 -13.328125 18.875 -14.453125 C 18.257812 -15.585938 17.410156 -16.460938 16.328125 -17.078125 C 15.253906 -17.691406 14.039062 -18 12.6875 -18 C 11.332031 -18 10.113281 -17.691406 9.03125 -17.078125 C 7.957031 -16.460938 7.109375 -15.585938 6.484375 -14.453125 C 5.859375 -13.328125 5.546875 -12.035156 5.546875 -10.578125 C 5.546875 -9.109375 5.859375 -7.804688 6.484375 -6.671875 C 7.109375 -5.546875 7.957031 -4.671875 9.03125 -4.046875 C 10.113281 -3.421875 11.332031 -3.109375 12.6875 -3.109375 Z M 12.6875 -3.109375 "/></g></g></g><g fill="#000000" fill-opacity="1"><g transform="translate(301.413174, 90.314715)"><g><path d="M 9.703125 0.234375 C 7.972656 0.234375 6.304688 0.00390625 4.703125 -0.453125 C 3.109375 -0.921875 1.859375 -1.515625 0.953125 -2.234375 L 2.546875 -5.265625 C 3.484375 -4.597656 4.613281 -4.066406 5.9375 -3.671875 C 7.269531 -3.273438 8.617188 -3.078125 9.984375 -3.078125 C 13.328125 -3.078125 15 -4.035156 15 -5.953125 C 15 -6.585938 14.769531 -7.085938 14.3125 -7.453125 C 13.863281 -7.828125 13.300781 -8.101562 12.625 -8.28125 C 11.945312 -8.457031 10.984375 -8.648438 9.734375 -8.859375 C 8.035156 -9.128906 6.644531 -9.4375 5.5625 -9.78125 C 4.488281 -10.125 3.566406 -10.707031 2.796875 -11.53125 C 2.023438 -12.351562 1.640625 -13.507812 1.640625 -15 C 1.640625 -16.914062 2.4375 -18.453125 4.03125 -19.609375 C 5.625 -20.765625 7.765625 -21.34375 10.453125 -21.34375 C 11.867188 -21.34375 13.28125 -21.171875 14.6875 -20.828125 C 16.09375 -20.484375 17.25 -20.019531 18.15625 -19.4375 L 16.515625 -16.40625 C 14.785156 -17.519531 12.753906 -18.078125 10.421875 -18.078125 C 8.796875 -18.078125 7.554688 -17.8125 6.703125 -17.28125 C 5.847656 -16.75 5.421875 -16.046875 5.421875 -15.171875 C 5.421875 -14.472656 5.660156 -13.921875 6.140625 -13.515625 C 6.617188 -13.117188 7.210938 -12.828125 7.921875 -12.640625 C 8.628906 -12.460938 9.617188 -12.253906 10.890625 -12.015625 C 12.597656 -11.722656 13.972656 -11.410156 15.015625 -11.078125 C 16.066406 -10.742188 16.960938 -10.175781 17.703125 -9.375 C 18.453125 -8.582031 18.828125 -7.46875 18.828125 -6.03125 C 18.828125 -4.113281 18.007812 -2.585938 16.375 -1.453125 C 14.738281 -0.328125 12.515625 0.234375 9.703125 0.234375 Z M 9.703125 0.234375 "/></g></g></g></svg>